<svg width="25" height="25" viewBox="0 0 25 25" fill="none" xmlns="http://www.w3.org/2000/svg">
<g clip-path="url(#clip0)">
<path d="M1.56257 1.70104C-0.402018 3.74166 6.51479e-05 5.90937 6.51479e-05 12.4948C6.51479e-05 17.9635 -0.954102 23.4458 4.03965 24.7365C5.59902 25.1375 19.4157 25.1375 20.973 24.7344C23.0522 24.1979 24.7438 22.5115 24.9751 19.5708C25.0074 19.1604 25.0074 5.83646 24.974 5.41771C24.7282 2.28541 22.8001 0.480206 20.2594 0.114581C19.6771 0.0302058 19.5605 0.0052058 16.573 -2.53692e-06C5.97611 0.0052058 3.65319 -0.466669 1.56257 1.70104Z" fill="url(#paint0_linear)"/>
<path d="M12.4979 3.26977C8.71563 3.26977 5.12397 2.93331 3.75209 6.45415C3.18543 7.90831 3.26772 9.79686 3.26772 12.501C3.26772 14.8739 3.19168 17.1041 3.75209 18.5469C5.12084 22.0698 8.74168 21.7323 12.4958 21.7323C16.1177 21.7323 19.8521 22.1094 21.2406 18.5469C21.8083 17.0781 21.725 15.2177 21.725 12.501C21.725 8.89477 21.924 6.56665 20.175 4.81873C18.4042 3.0479 16.0094 3.26977 12.4938 3.26977H12.4979ZM11.6708 4.93331C19.5604 4.92081 20.5646 4.04373 20.0104 16.2281C19.8135 20.5375 16.5323 20.0646 12.499 20.0646C5.1448 20.0646 4.93334 19.8541 4.93334 12.4969C4.93334 5.05415 5.51668 4.93748 11.6708 4.93123V4.93331ZM17.425 6.46561C16.8135 6.46561 16.3177 6.96144 16.3177 7.5729C16.3177 8.18436 16.8135 8.68019 17.425 8.68019C18.0365 8.68019 18.5323 8.18436 18.5323 7.5729C18.5323 6.96144 18.0365 6.46561 17.425 6.46561ZM12.4979 7.7604C9.88022 7.7604 7.75834 9.88332 7.75834 12.501C7.75834 15.1187 9.88022 17.2406 12.4979 17.2406C15.1156 17.2406 17.2365 15.1187 17.2365 12.501C17.2365 9.88332 15.1156 7.7604 12.4979 7.7604ZM12.4979 9.42394C16.5656 9.42394 16.5708 15.5781 12.4979 15.5781C8.43126 15.5781 8.42501 9.42394 12.4979 9.42394Z" fill="white"/>
</g>
<defs>
<linearGradient id="paint0_linear" x1="1.6105" y1="23.4032" x2="24.8454" y2="3.29372" gradientUnits="userSpaceOnUse">
<stop stop-color="#8E7F42"/>
<stop offset="0.5" stop-color="#FF543E"/>
<stop offset="1" stop-color="#C837AB"/>
</linearGradient>
<clipPath id="clip0">
<rect width="25" height="25" fill="white"/>
</clipPath>
</defs>
</svg>
